<svg xmlns="http://www.w3.org/2000/svg" width="20" height="21.28" viewBox="0 0 20 21.28">
    <g>
        <path fill="#0d0c22" d="M34.133 6.748a.887.887 0 0 0-1.254 0L22.22 17.468a3.547 3.547 0 0 1-5.014-5.017L28.18 1.418a2.217 2.217 0 0 1 3.133 3.137l-9.091 9.091a.886.886 0 0 1-1.252-1.255L25.356 8A.887.887 0 1 0 24.1 6.75l-4.388 4.389a2.66 2.66 0 0 0 3.764 3.761l9.088-9.088A3.99 3.99 0 0 0 26.925.166L15.95 11.2a5.32 5.32 0 0 0 7.525 7.522L34.136 8a.887.887 0 0 0-.003-1.252z" transform="translate(-14.394 1.002)"/>
    </g>
</svg>
