<svg xmlns="http://www.w3.org/2000/svg" id="_74013" width="20" height="20" viewBox="0 0 20 20">
    <defs>
        <style>
            .cls-1{fill:#0d0c22}
        </style>
    </defs>
    <path id="Path_1" d="M16.84 0H3.16A3.164 3.164 0 0 0 0 3.16v13.68A3.164 3.164 0 0 0 3.16 20h13.68A3.164 3.164 0 0 0 20 16.84V3.16A3.164 3.164 0 0 0 16.84 0zm1.053 16.84a1.055 1.055 0 0 1-1.053 1.053H3.16a1.055 1.055 0 0 1-1.053-1.053V3.16A1.055 1.055 0 0 1 3.16 2.107h13.68a1.055 1.055 0 0 1 1.053 1.053v13.68z" class="cls-1"/>
    <path id="Path_2" d="M96.751 106.585a1.29 1.29 0 0 0-.943.413l-4.936 5.219-1.315-1.389a1.284 1.284 0 0 0-1.886 0 1.464 1.464 0 0 0 0 1.991l2.259 2.385a1.284 1.284 0 0 0 1.886 0l5.878-6.215a1.466 1.466 0 0 0 0-1.991 1.291 1.291 0 0 0-.943-.413z" class="cls-1" transform="translate(-82.912 -101.1)"/>
</svg>
