<svg id="Download" xmlns="http://www.w3.org/2000/svg" width="34.833" height="31.71" viewBox="0 0 34.833 31.71">
  <path id="Path_6525" data-name="Path 6525" d="M31.833,27.623c0-6.917,3.583-11.667,3.583-15S33.5,2.29,18.167,2.29.583,11.707.583,15.373C.583,32.54,31.833,39.873,31.833,27.623Z" transform="translate(-0.583 -2)" fill="#efefef"/>
  <path id="Path_6526" data-name="Path 6526" d="M11.5,5A1.5,1.5,0,1,1,13,3.5,1.5,1.5,0,0,1,11.5,5Zm0-2a.5.5,0,1,0,.5.5A.5.5,0,0,0,11.5,3Z" transform="translate(-0.583 -2)" fill="#a4afc1"/>
  <path id="Path_6527" data-name="Path 6527" d="M29.25,24.25V11.75a2,2,0,0,0-2-2H8.75a2,2,0,0,0-2,2v12.5a2,2,0,0,0,2,2h18.5A2,2,0,0,0,29.25,24.25Z" transform="translate(-0.583 -2)" fill="#f3f3f1"/>
  <path id="Path_6528" data-name="Path 6528" d="M6.75,21.25h6.5a2,2,0,0,0,2-2v-2.5a2,2,0,0,0-2-2H6.75Z" transform="translate(-0.583 -2)" fill="#00ba53"/>
  <path id="Path_6529" data-name="Path 6529" d="M29.25,24.5,24.5,29.25,19.75,24.5h3V19.25a.5.5,0,0,1,.5-.5h2.5a.5.5,0,0,1,.5.5V24.5Z" transform="translate(-0.583 -2)" fill="#00ba53"/>
  <path id="Path_6530" data-name="Path 6530" d="M9,24.25V11.75a2,2,0,0,1,2-2H8.75a2,2,0,0,0-2,2v12.5a2,2,0,0,0,2,2H11A2,2,0,0,1,9,24.25Z" transform="translate(-0.583 -2)" fill="#d5dbe1"/>
  <g id="Group_7777" data-name="Group 7777" transform="translate(-0.583 -2)">
    <path id="Path_6531" data-name="Path 6531" d="M6.75,14.75H9v6.5H6.75Z" fill="#00b871"/>
    <path id="Path_6532" data-name="Path 6532" d="M25,19.25a.5.5,0,0,1,.5-.5H23.25a.5.5,0,0,0-.5.5V24.5H25Z" fill="#00b871"/>
    <path id="Path_6533" data-name="Path 6533" d="M22,24.5H19.75l4.75,4.75,1.125-1.125Z" fill="#00b871"/>
  </g>
  <path id="Path_6534" data-name="Path 6534" d="M24.5,30a.744.744,0,0,1-.53-.22l-4.75-4.75a.75.75,0,0,1,.53-1.28H22v-4.5A1.252,1.252,0,0,1,23.25,18h2.5A1.252,1.252,0,0,1,27,19.25v4.5h2.25a.75.75,0,0,1,.53,1.28l-4.75,4.75A.744.744,0,0,1,24.5,30Zm-2.939-4.75L24.5,28.189l2.939-2.939H26.25a.75.75,0,0,1-.75-.75v-5h-2v5a.75.75,0,0,1-.75.75Z" transform="translate(-0.583 -2)" fill="#2085fb"/>
  <path id="Path_6535" data-name="Path 6535" d="M17.25,27H8.75A2.752,2.752,0,0,1,6,24.25V11.75A2.752,2.752,0,0,1,8.75,9h18.5A2.752,2.752,0,0,1,30,11.75v4.5H28.5v-4.5a1.252,1.252,0,0,0-1.25-1.25H8.75A1.252,1.252,0,0,0,7.5,11.75v12.5A1.252,1.252,0,0,0,8.75,25.5h8.5Z" transform="translate(-0.583 -2)" fill="#2085fb"/>
  <path id="Path_6536" data-name="Path 6536" d="M13.25,22H6.75A.75.75,0,0,1,6,21.25v-6.5A.75.75,0,0,1,6.75,14h6.5A2.752,2.752,0,0,1,16,16.75v2.5A2.752,2.752,0,0,1,13.25,22ZM7.5,20.5h5.75a1.252,1.252,0,0,0,1.25-1.25v-2.5a1.252,1.252,0,0,0-1.25-1.25H7.5Z" transform="translate(-0.583 -2)" fill="#2085fb"/>
  <circle id="Ellipse_375" data-name="Ellipse 375" cx="1" cy="1" r="1" transform="translate(9.417 15)" fill="#26009c"/>
</svg>
