<svg xmlns="http://www.w3.org/2000/svg" id="_1829552" width="20.739" height="19.011" viewBox="0 0 20.739 19.011">
    <defs>
        <style>
            .cls-1{fill:#0d0c22}
        </style>
    </defs>
    <path id="Path_8" d="M5.4 157.507a3.236 3.236 0 0 1-3.061-2.2l-.03-.1a3.154 3.154 0 0 1-.15-.937v-5.892l-2.1 7a1.962 1.962 0 0 0 1.376 2.381l13.365 3.573a1.982 1.982 0 0 0 .5.064 1.927 1.927 0 0 0 1.867-1.413l.778-2.476zm0 0" class="cls-1" transform="translate(0 -142.385)"/>
    <path id="Path_9" d="M151.049 67.949a1.728 1.728 0 1 0-1.728-1.728 1.73 1.73 0 0 0 1.728 1.728zm0 0" class="cls-1" transform="translate(-143.272 -61.9)"/>
    <path id="Path_10" d="M100.443.492H87.481a2.163 2.163 0 0 0-2.16 2.16v9.505a2.163 2.163 0 0 0 2.16 2.16h12.962a2.163 2.163 0 0 0 2.16-2.16V2.653a2.163 2.163 0 0 0-2.16-2.161zM87.481 2.221h12.962a.432.432 0 0 1 .432.432v6.134L98.145 5.6a1.548 1.548 0 0 0-1.159-.531 1.51 1.51 0 0 0-1.154.545l-3.21 3.854-1.045-1.043a1.517 1.517 0 0 0-2.143 0l-2.385 2.384V2.653a.432.432 0 0 1 .432-.432zm0 0" class="cls-1" transform="translate(-81.864 -.492)"/>
</svg>
