<svg xmlns="http://www.w3.org/2000/svg" id="_507205" width="20.088" height="13.813" viewBox="0 0 20.088 13.813">
    <defs>
        <style>
            .cls-1{fill:#0d0c22}
        </style>
    </defs>
    <g id="Group_24" transform="translate(3.772)">
        <g id="Group_23">
            <path id="Path_35" d="M109.986 80H97.435a1.255 1.255 0 1 0 0 2.51h12.551a1.255 1.255 0 0 0 0-2.51z" class="cls-1" transform="translate(-96.18 -80)"/>
        </g>
    </g>
    <g id="Group_26" transform="translate(0 .005)">
        <g id="Group_25">
            <path id="Path_36" d="M2.518 81.385a1.255 1.255 0 0 0-2.51 0 1.069 1.069 0 0 0 0 .245 1.132 1.132 0 0 0 .069.238 1.457 1.457 0 0 0 .119.213 1.148 1.148 0 0 0 .157.195 1.11 1.11 0 0 0 .188.151 1.023 1.023 0 0 0 .213.119 1.036 1.036 0 0 0 .264.094 1.1 1.1 0 0 0 .245 0 1.255 1.255 0 0 0 .885-.364 1.148 1.148 0 0 0 .157-.195 1.457 1.457 0 0 0 .119-.213 1.165 1.165 0 0 0 .094-.238 1.069 1.069 0 0 0 0-.245z" class="cls-1" transform="translate(-.001 -80.135)"/>
        </g>
    </g>
    <g id="Group_28" transform="translate(.007 5.653)">
        <g id="Group_27">
            <path id="Path_37" d="M2.69 225.385a1.073 1.073 0 0 0 0-.245 1.017 1.017 0 0 0-.094-.232 1.255 1.255 0 0 0-.119-.22.9.9 0 0 0-.157-.188 1.255 1.255 0 0 0-2.14.885 1.252 1.252 0 0 0 .207.7 1.2 1.2 0 0 0 .163.188.916.916 0 0 0 .188.157 1.018 1.018 0 0 0 .213.119 1.069 1.069 0 0 0 .238.069 1.041 1.041 0 0 0 .245.025 1.067 1.067 0 0 0 .245 0 1.02 1.02 0 0 0 .232-.069 1.047 1.047 0 0 0 .22-.119.916.916 0 0 0 .188-.157.916.916 0 0 0 .157-.188 1.009 1.009 0 0 0 .119-.213 1.061 1.061 0 0 0 .094-.264 1.038 1.038 0 0 0 .001-.248z" class="cls-1" transform="translate(-.18 -224.135)"/>
        </g>
    </g>
    <g id="Group_30" transform="translate(.007 11.301)">
        <g id="Group_29">
            <path id="Path_38" d="M2.688 369.385a1.078 1.078 0 0 0 0-.245 1.069 1.069 0 0 0-.094-.238 1.458 1.458 0 0 0-.119-.213.917.917 0 0 0-.157-.188 1.255 1.255 0 0 0-1.77 0 .917.917 0 0 0-.157.188 1.458 1.458 0 0 0-.119.213 1.028 1.028 0 0 0-.069.238 1.079 1.079 0 0 0-.025.245 1.255 1.255 0 0 0 .37.885.915.915 0 0 0 .188.157 1.018 1.018 0 0 0 .213.119 1.069 1.069 0 0 0 .238.069 1.043 1.043 0 0 0 .245.025 1.069 1.069 0 0 0 .245 0 1.019 1.019 0 0 0 .232-.069 1.047 1.047 0 0 0 .22-.119.918.918 0 0 0 .188-.157.917.917 0 0 0 .157-.188 1 1 0 0 0 .119-.213 1.065 1.065 0 0 0 .094-.264 1.038 1.038 0 0 0 .001-.245z" class="cls-1" transform="translate(-.178 -368.135)"/>
        </g>
    </g>
    <g id="Group_32" transform="translate(3.772 5.648)">
        <g id="Group_31">
            <path id="Path_39" d="M111.241 224H97.435a1.255 1.255 0 1 0 0 2.51h13.806a1.255 1.255 0 0 0 0-2.51z" class="cls-1" transform="translate(-96.18 -224)"/>
        </g>
    </g>
    <g id="Group_34" transform="translate(3.772 11.296)">
        <g id="Group_33">
            <path id="Path_40" d="M105.593 368h-8.158a1.255 1.255 0 1 0 0 2.51h8.158a1.255 1.255 0 1 0 0-2.51z" class="cls-1" transform="translate(-96.18 -368)"/>
        </g>
    </g>
</svg>
