<svg xmlns="http://www.w3.org/2000/svg" id="_651191" width="20.562" height="20.421" viewBox="0 0 20.562 20.421">
    <defs>
        <style>
            .cls-1{fill:#0d0c22}
        </style>
    </defs>
    <g id="Group_14" transform="translate(4.006 11.11)">
        <g id="Group_13">
            <path id="Path_19" d="M100.677 278.4a.915.915 0 1 0 .915.915.916.916 0 0 0-.915-.915zm0 1.227a.312.312 0 1 1 .312-.312.312.312 0 0 1-.312.314z" class="cls-1" transform="translate(-99.762 -278.402)"/>
        </g>
    </g>
    <g id="Group_16" transform="translate(7.346 14.808)">
        <g id="Group_15">
            <path id="Path_20" d="M188.762 372.6a.3.3 0 0 0-.287-.209h-1.793l-.554-1.7a.3.3 0 0 0-.574 0l-.554 1.7h-1.793a.3.3 0 0 0-.177.546l1.45 1.054-.554 1.7a.3.3 0 0 0 .464.337l1.45-1.054 1.45 1.054a.3.3 0 0 0 .464-.337l-.554-1.7 1.45-1.054a.3.3 0 0 0 .112-.337zm-2.092 1.032a.3.3 0 0 0-.11.337l.335 1.03-.876-.637a.3.3 0 0 0-.355 0l-.876.637.335-1.03a.3.3 0 0 0-.11-.337l-.876-.637h1.083a.3.3 0 0 0 .287-.208l.335-1.03.335 1.03a.3.3 0 0 0 .287.208h1.083z" class="cls-1" transform="translate(-182.906 -370.474)"/>
        </g>
    </g>
    <g id="Group_18" transform="translate(14.691 14.808)">
        <g id="Group_17">
            <path id="Path_21" d="M371.669 372.6a.3.3 0 0 0-.287-.209h-1.793l-.554-1.7a.3.3 0 0 0-.574 0l-.554 1.7h-1.793a.3.3 0 0 0-.177.546l1.45 1.054-.554 1.7a.3.3 0 0 0 .464.337l1.45-1.054 1.45 1.054a.3.3 0 0 0 .464-.337l-.554-1.7 1.45-1.054a.3.3 0 0 0 .112-.337zm-2.092 1.032a.3.3 0 0 0-.11.337l.335 1.03-.876-.637a.3.3 0 0 0-.355 0l-.876.637.335-1.03a.3.3 0 0 0-.11-.337l-.876-.637h1.083a.3.3 0 0 0 .287-.208l.335-1.03.335 1.03a.3.3 0 0 0 .287.208h1.083z" class="cls-1" transform="translate(-365.813 -370.473)"/>
        </g>
    </g>
    <g id="Group_20" transform="translate(0 14.808)">
        <g id="Group_19">
            <path id="Path_22" d="M5.856 372.6a.3.3 0 0 0-.287-.209H3.776l-.554-1.7a.3.3 0 0 0-.574 0l-.554 1.7H.3a.3.3 0 0 0-.177.546l1.45 1.054-.554 1.7a.3.3 0 0 0 .464.337l1.45-1.054 1.45 1.054a.3.3 0 0 0 .464-.337l-.554-1.7 1.45-1.054a.3.3 0 0 0 .113-.337zm-2.092 1.032a.3.3 0 0 0-.11.337L3.989 375l-.876-.637a.3.3 0 0 0-.355 0l-.877.637.335-1.03a.3.3 0 0 0-.11-.337l-.876-.637h1.083a.3.3 0 0 0 .287-.209l.335-1.03.335 1.03a.3.3 0 0 0 .287.209H4.64z" class="cls-1" transform="translate(0 -370.474)"/>
        </g>
    </g>
    <g id="Group_22" transform="translate(2.575)">
        <g id="Group_21">
            <path id="Path_23" d="M79.67 9.282a1.367 1.367 0 0 0-.856-2.433h-4.855a5.54 5.54 0 0 0 .425-1.527 3.781 3.781 0 0 0-.452-2.914 1.61 1.61 0 0 0-1.1-.645.643.643 0 0 0-.713.616 11.453 11.453 0 0 1-.559 2.765 6.736 6.736 0 0 1-3.134 2.679 1.114 1.114 0 0 0-.729-.271h-2.451a1.121 1.121 0 0 0-1.12 1.12v6.134a1.121 1.121 0 0 0 1.12 1.12H67.7a1.117 1.117 0 0 0 .833-.372 2.857 2.857 0 0 0 1.542.425h7.887a1.367 1.367 0 0 0 1.026-2.27 1.367 1.367 0 0 0 .426-2.132 1.367 1.367 0 0 0 .256-2.294zm-11.97 6.04h-2.454a.517.517 0 0 1-.516-.516V8.672a.517.517 0 0 1 .516-.516H67.7a.514.514 0 0 1 .368.155v6.73a.3.3 0 0 0 .019.1.515.515 0 0 1-.387.181zm9.847-5.738h1.268a.764.764 0 1 1 0 1.528h-1.269a.3.3 0 1 0 0 .6h.842a.764.764 0 1 1 0 1.528h-1.074a.3.3 0 1 0 0 .6h.647a.764.764 0 0 1 0 1.528h-7.887a2.232 2.232 0 0 1-1.274-.365 1.12 1.12 0 0 0 .019-.2V8.672a1.115 1.115 0 0 0-.052-.339A7.165 7.165 0 0 0 72.1 5.414a12.316 12.316 0 0 0 .621-2.989v-.029a.033.033 0 0 1 .012-.026.03.03 0 0 1 .025-.008 1.015 1.015 0 0 1 .692.413 3.231 3.231 0 0 1 .334 2.461 3.872 3.872 0 0 1-.579 1.723.3.3 0 0 0 .234.493h5.372a.764.764 0 0 1 0 1.528h-1.265a.3.3 0 1 0 0 .6z" class="cls-1" transform="translate(-64.126 -1.758)"/>
        </g>
    </g>
</svg>
