<svg xmlns="http://www.w3.org/2000/svg" width="20.148" height="12.952" viewBox="0 0 20.148 12.952">
    <g>
        <g>
            <path d="M12.074 19.952a11.144 11.144 0 0 1-8.179-3.661.72.72 0 0 1 1.052-.982 9.718 9.718 0 0 0 7.127 3.2 10.028 10.028 0 0 0 8.52-5.037 10.027 10.027 0 0 0-8.52-5.037 10.089 10.089 0 0 0-8.728 5.392.72.72 0 0 1-1.252-.71A11.509 11.509 0 0 1 12.074 7a11.508 11.508 0 0 1 9.981 6.121.719.719 0 0 1 0 .709 11.509 11.509 0 0 1-9.981 6.122z" transform="translate(-2 -7) translate(2 7) translate(-2 -7)"/>
        </g>
        <g>
            <path d="M14.6 18.2a3.6 3.6 0 1 1 3.6-3.6 3.6 3.6 0 0 1-3.6 3.6zm0-5.757a2.159 2.159 0 1 0 2.157 2.157 2.161 2.161 0 0 0-2.157-2.161z" transform="translate(-2 -7) translate(8.476 9.878) translate(-11 -11)"/>
        </g>
    </g>
</svg>
