<svg xmlns="http://www.w3.org/2000/svg" id="XMLID_1030_" width="20.467" height="16.15" viewBox="0 0 20.467 16.15">
    <defs>
        <style>
            .cls-1{fill:#0d0c22}
        </style>
    </defs>
    <g id="XMLID_2445_" transform="translate(0 5.756)">
        <g id="XMLID_3103_" transform="translate(14.517 4.666)">
            <g id="XMLID_3104_">
                <path id="XMLID_1253_" d="M367.548 320.473a.756.756 0 0 1-.446-.146l-.921-.672-.921.672a.757.757 0 0 1-1.166-.847l.355-1.084-.928-.671a.757.757 0 0 1 .444-1.37h1.146l.35-1.083a.757.757 0 0 1 1.44 0l.35 1.083h1.149a.757.757 0 0 1 .444 1.37l-.928.671.355 1.084a.758.758 0 0 1-.719.993zm-1.367-1.713a.4.4 0 0 1 .236.077l1.051.767-.4-1.236a.4.4 0 0 1 .146-.448l1.058-.765h-1.312a.4.4 0 0 1-.38-.277l-.4-1.235-.4 1.235a.4.4 0 0 1-.38.277h-1.3l1.058.765a.4.4 0 0 1 .146.448l-.4 1.236 1.051-.767a.4.4 0 0 1 .225-.078z" class="cls-1" transform="translate(-363.206 -314.747)"/>
            </g>
        </g>
        <g id="XMLID_2446_" transform="translate(0 4.666)">
            <g id="XMLID_2447_">
                <path id="XMLID_1250_" d="M4.342 320.473a.756.756 0 0 1-.446-.146l-.921-.672-.921.672a.757.757 0 0 1-1.166-.847l.355-1.084-.928-.671a.757.757 0 0 1 .444-1.37H1.9l.35-1.083a.746.746 0 0 1 .72-.524.746.746 0 0 1 .72.524l.35 1.083h1.151a.757.757 0 0 1 .444 1.37l-.928.671.355 1.084a.758.758 0 0 1-.72.993zm-1.367-1.713a.4.4 0 0 1 .236.077l1.051.767-.4-1.236a.4.4 0 0 1 .138-.449l1.058-.765H3.755a.4.4 0 0 1-.38-.277l-.4-1.235-.4 1.235a.4.4 0 0 1-.38.277H.89l1.058.765a.4.4 0 0 1 .146.448l-.4 1.236 1.051-.767a.4.4 0 0 1 .236-.077z" class="cls-1" transform="translate(0 -314.747)"/>
            </g>
        </g>
        <g id="XMLID_3100_" transform="translate(4.821)">
            <g id="XMLID_3098_">
                <path id="XMLID_1234_" d="M128.7 208.414a1.092 1.092 0 0 1-.646-.215l-2.017-1.472-2.017 1.472a1.1 1.1 0 0 1-1.687-1.225l.777-2.373-2.03-1.468a1.1 1.1 0 0 1 .642-1.983h2.506l.767-2.371a1.1 1.1 0 0 1 2.084 0l.767 2.371h2.506a1.1 1.1 0 0 1 .642 1.983l-2.03 1.468.777 2.373a1.078 1.078 0 0 1-.4 1.227 1.092 1.092 0 0 1-.641.213zm-2.662-2.581a.4.4 0 0 1 .236.077l2.252 1.644a.3.3 0 0 0 .456-.331l-.868-2.65a.4.4 0 0 1 .146-.448l2.266-1.639a.3.3 0 0 0-.173-.535h-2.8a.4.4 0 0 1-.38-.277l-.856-2.648a.3.3 0 0 0-.563 0l-.856 2.648a.4.4 0 0 1-.38.277h-2.8a.3.3 0 0 0-.173.535l2.266 1.639a.4.4 0 0 1 .146.448l-.868 2.65a.3.3 0 0 0 .456.331l2.252-1.644a.4.4 0 0 1 .242-.077z" class="cls-1" transform="translate(-120.627 -198.021)"/>
            </g>
        </g>
    </g>
    <g id="XMLID_1079_" transform="translate(3.631 1.469)">
        <g id="XMLID_1033_" transform="translate(6.203 .33)">
            <g id="XMLID_1044_">
                <path id="XMLID_1224_" d="M246.422 101.3a.4.4 0 0 1-.4-.4v-1.5a.4.4 0 1 1 .8 0v1.5a.4.4 0 0 1-.4.4z" class="cls-1" transform="translate(-246.022 -99.001)"/>
            </g>
        </g>
        <g id="XMLID_1032_" transform="translate(10.28)">
            <path id="XMLID_1223_" d="M348.422 93.679a.4.4 0 0 1-.283-.682l2.126-2.126a.4.4 0 0 1 .565.565l-2.13 2.126a.4.4 0 0 1-.278.117z" class="cls-1" transform="translate(-348.022 -90.754)"/>
        </g>
        <g id="XMLID_1029_">
            <path id="XMLID_1222_" d="M93.364 93.679a.4.4 0 0 1-.283-.117l-2.126-2.126a.4.4 0 0 1 .565-.565L93.646 93a.4.4 0 0 1-.283.682z" class="cls-1" transform="translate(-90.838 -90.754)"/>
        </g>
    </g>
    <g id="XMLID_2052_" transform="translate(9.836)">
        <path id="XMLID_1221_" d="M246.482 54.8a.4.4 0 1 1 .283-.117.4.4 0 0 1-.283.117z" class="cls-1" transform="translate(-246.082 -54.002)"/>
    </g>
</svg>
