<svg xmlns="http://www.w3.org/2000/svg" id="_1827240" width="20.167" height="18.487" viewBox="0 0 20.167 18.487">
    <defs>
        <style>
            .cls-1{fill:#0d0c22}
        </style>
    </defs>
    <path id="Path_24" d="M17.856 18.487H2.311A2.313 2.313 0 0 1 0 16.176V2.311A2.313 2.313 0 0 1 2.311 0h15.545a2.313 2.313 0 0 1 2.311 2.311v13.865a2.313 2.313 0 0 1-2.311 2.311zM2.311 1.26a1.052 1.052 0 0 0-1.05 1.05v13.866a1.052 1.052 0 0 0 1.05 1.05h15.545a1.052 1.052 0 0 0 1.05-1.05V2.311a1.052 1.052 0 0 0-1.05-1.05zm0 0" class="cls-1"/>
    <path id="Path_25" d="M19.537 129.26H.63a.63.63 0 1 1 0-1.26h18.907a.63.63 0 1 1 0 1.26zm0 0" class="cls-1" transform="translate(0 -122.958)"/>
    <path id="Path_26" d="M19.537 235.928H.63a.63.63 0 0 1 0-1.26h18.907a.63.63 0 0 1 0 1.26zm0 0" class="cls-1" transform="translate(0 -225.425)"/>
    <path id="Path_27" d="M19.537 342.592H.63a.63.63 0 1 1 0-1.26h18.907a.63.63 0 1 1 0 1.26zm0 0" class="cls-1" transform="translate(0 -327.887)"/>
    <path id="Path_28" d="M117.962 141.445a.63.63 0 0 1-.63-.63V128.63a.63.63 0 0 1 1.26 0v12.184a.63.63 0 0 1-.63.631zm0 0" class="cls-1" transform="translate(-112.71 -122.958)"/>
    <path id="Path_29" d="M240.63 141.445a.63.63 0 0 1-.63-.63V128.63a.63.63 0 0 1 1.26 0v12.184a.63.63 0 0 1-.63.631zm0 0" class="cls-1" transform="translate(-230.547 -122.958)"/>
    <path id="Path_30" d="M363.3 141.445a.63.63 0 0 1-.63-.63V128.63a.63.63 0 1 1 1.26 0v12.184a.63.63 0 0 1-.63.631zm0 0" class="cls-1" transform="translate(-348.383 -122.958)"/>
</svg>
