<svg xmlns="http://www.w3.org/2000/svg" id="_2799954" width="20.142" height="18.463" viewBox="0 0 20.142 18.463">
    <defs>
        <style>
            .cls-1{fill:#0d0c22}
        </style>
    </defs>
    <g id="Group_2" transform="translate(3.357 6.714)">
        <path id="Path_3" d="M10.714 9H4.839A.84.84 0 0 0 4 9.839V11.1a.839.839 0 0 0 1.678 0v-.42h1.259v5.035h-.42a.839.839 0 0 0 0 1.678h2.518a.839.839 0 0 0 0-1.678h-.42v-5.037h1.26v.42a.839.839 0 0 0 1.678 0V9.839A.84.84 0 0 0 10.714 9z" class="cls-1" transform="translate(-4 -9)"/>
    </g>
    <g id="Group_3" transform="translate(12.589 6.714)">
        <path id="Path_4" d="M18.357 10.678h-2.518a.839.839 0 1 1 0-1.678h2.518a.839.839 0 0 1 0 1.678z" class="cls-1" transform="translate(-15 -9)"/>
    </g>
    <g id="Group_4" transform="translate(12.589 10.071)">
        <path id="Path_5" d="M18.357 14.678h-2.518a.839.839 0 1 1 0-1.678h2.518a.839.839 0 0 1 0 1.678z" class="cls-1" transform="translate(-15 -13)"/>
    </g>
    <g id="Group_5" transform="translate(12.589 13.428)">
        <path id="Path_6" d="M18.357 18.678h-2.518a.839.839 0 1 1 0-1.678h2.518a.839.839 0 0 1 0 1.678z" class="cls-1" transform="translate(-15 -17)"/>
    </g>
    <g id="Group_6">
        <path id="Path_7" d="M17.624 1H2.518A2.521 2.521 0 0 0 0 3.518v13.428a2.521 2.521 0 0 0 2.518 2.518h15.106a2.521 2.521 0 0 0 2.518-2.518V3.518A2.521 2.521 0 0 0 17.624 1zm0 16.785H2.518a.84.84 0 0 1-.839-.839V5.2h16.784v11.746a.84.84 0 0 1-.839.839z" class="cls-1" transform="translate(0 -1)"/>
    </g>
</svg>
