<svg xmlns="http://www.w3.org/2000/svg" id="_1124602" width="20" height="20" viewBox="0 0 20 20">
    <defs>
        <style>
            .cls-1{fill:#0d0c22}
        </style>
    </defs>
    <path id="Path_14" d="M17.9 5.262a.833.833 0 0 0-.387 1.113 8.248 8.248 0 0 1 .82 3.625A8.333 8.333 0 1 1 10 1.667a8.233 8.233 0 0 1 5.173 1.8.833.833 0 1 0 1.037-1.3A10 10 0 1 0 20 10a9.9 9.9 0 0 0-.992-4.35.832.832 0 0 0-1.108-.388zm0 0" class="cls-1"/>
    <path id="Path_15" d="M176.917 64a.917.917 0 0 0-.917.917v6.42a.917.917 0 0 0 .917.917h4.583a.917.917 0 1 0 0-1.834h-3.668v-5.5a.917.917 0 0 0-.915-.92zm0 0" class="cls-1" transform="translate(-167.484 -59.496)"/>
</svg>
